<svg version="1.1" id="HJYZ0fp2z" xmlns="http://www.w3.org/2000/svg" xmlns:xlink="http://www.w3.org/1999/xlink" x="0px" y="0px" viewBox="0 0 441 423" enable-background="new 0 0 441 423" xml:space="preserve"><style>@-webkit-keyframes rJKFW0za3f_BJveymT2f_Animation{58.00%{-webkit-transform: translate(0px, 0px);transform: translate(0px, 0px);}60%{-webkit-transform: translate(0px, -3px);transform: translate(0px, -3px);}62%{-webkit-transform: translate(0px, 0px);transform: translate(0px, 0px);}66.67%{-webkit-transform: translate(0px, -2px);transform: translate(0px, -2px);}70.67%{-webkit-transform: translate(0px, 0px);transform: translate(0px, 0px);}100%{-webkit-transform: translate(0px, 0px);transform: translate(0px, 0px);}}@keyframes rJKFW0za3f_BJveymT2f_Animation{58.00%{-webkit-transform: translate(0px, 0px);transform: translate(0px, 0px);}60%{-webkit-transform: translate(0px, -3px);transform: translate(0px, -3px);}62%{-webkit-transform: translate(0px, 0px);transform: translate(0px, 0px);}66.67%{-webkit-transform: translate(0px, -2px);transform: translate(0px, -2px);}70.67%{-webkit-transform: translate(0px, 0px);transform: translate(0px, 0px);}100%{-webkit-transform: translate(0px, 0px);transform: translate(0px, 0px);}}@-webkit-keyframes HkOtb0Mp3M_HJF0RMTnG_Animation{58.00%{-webkit-transform: translate(0px, 0px);transform: translate(0px, 0px);}60%{-webkit-transform: translate(0px, -3px);transform: translate(0px, -3px);}62%{-webkit-transform: translate(0px, 0px);transform: translate(0px, 0px);}66.67%{-webkit-transform: translate(0px, -2px);transform: translate(0px, -2px);}70.67%{-webkit-transform: translate(0px, 0px);transform: translate(0px, 0px);}100%{-webkit-transform: translate(0px, 0px);transform: translate(0px, 0px);}}@keyframes HkOtb0Mp3M_HJF0RMTnG_Animation{58.00%{-webkit-transform: translate(0px, 0px);transform: translate(0px, 0px);}60%{-webkit-transform: translate(0px, -3px);transform: translate(0px, -3px);}62%{-webkit-transform: translate(0px, 0px);transform: translate(0px, 0px);}66.67%{-webkit-transform: translate(0px, -2px);transform: translate(0px, -2px);}70.67%{-webkit-transform: translate(0px, 0px);transform: translate(0px, 0px);}100%{-webkit-transform: translate(0px, 0px);transform: translate(0px, 0px);}}@-webkit-keyframes ry8K-0f6hG_H19Y0M6hG_Animation{18%{-webkit-transform: scale(1, 1);transform: scale(1, 1);}20%{-webkit-transform: scale(1, 0);transform: scale(1, 0);}22%{-webkit-transform: scale(1, 1);transform: scale(1, 1);}0%{-webkit-transform: scale(1, 1);transform: scale(1, 1);}100%{-webkit-transform: scale(1, 1);transform: scale(1, 1);}}@keyframes ry8K-0f6hG_H19Y0M6hG_Animation{18%{-webkit-transform: scale(1, 1);transform: scale(1, 1);}20%{-webkit-transform: scale(1, 0);transform: scale(1, 0);}22%{-webkit-transform: scale(1, 1);transform: scale(1, 1);}0%{-webkit-transform: scale(1, 1);transform: scale(1, 1);}100%{-webkit-transform: scale(1, 1);transform: scale(1, 1);}}@-webkit-keyframes H1BYZ0Gp2G_r1ifAMa2M_Animation{18%{-webkit-transform: scale(1, 1);transform: scale(1, 1);}20%{-webkit-transform: scale(1, 0);transform: scale(1, 0);}22%{-webkit-transform: scale(1, 1);transform: scale(1, 1);}0%{-webkit-transform: scale(1, 1);transform: scale(1, 1);}100%{-webkit-transform: scale(1, 1);transform: scale(1, 1);}}@keyframes H1BYZ0Gp2G_r1ifAMa2M_Animation{18%{-webkit-transform: scale(1, 1);transform: scale(1, 1);}20%{-webkit-transform: scale(1, 0);transform: scale(1, 0);}22%{-webkit-transform: scale(1, 1);transform: scale(1, 1);}0%{-webkit-transform: scale(1, 1);transform: scale(1, 1);}100%{-webkit-transform: scale(1, 1);transform: scale(1, 1);}}#HJYZ0fp2z *{-webkit-animation-duration: 5s;animation-duration: 5s;-webkit-animation-iteration-count: infinite;animation-iteration-count: infinite;-webkit-animation-timing-function: cubic-bezier(0, 0, 1, 1);animation-timing-function: cubic-bezier(0, 0, 1, 1);}#rkgFW0Ga3G{fill: #FFFFFF;}#SJ-tZAM63f{fill: #0A1518;}#rkftW0zT2G{fill: #FFFFFF;}#Hk7KZ0G62f{fill: #5F5C5D;}#HkNKZ0f62G{fill: #5F5C5D;}#H1BYZ0Gp2G{fill: #414042;}#ry8K-0f6hG{fill: #414042;}#r1wYbAMa3f{fill: #5F5C5D;}#HkOtb0Mp3M{-webkit-transform:  matrix(0.9047, 0.4261, -0.4261, 0.9047, 164.4481, -64.1486);transform:  matrix(0.9047, 0.4261, -0.4261, 0.9047, 164.4481, -64.1486);fill: #5F5C5D;}#rJKFW0za3f{-webkit-transform:  matrix(-0.9047, 0.4261, -0.4261, -0.9047, 548.9882, 548.1509);transform:  matrix(-0.9047, 0.4261, -0.4261, -0.9047, 548.9882, 548.1509);fill: #5F5C5D;}#SycYbRM6nf{fill: #FFFFFF;}#rJot-RGT3M{fill: #FFFFFF;}#B12FbRGT2M{fill: #0B6EAA;}#H1BYZ0Gp2G_r1ifAMa2M{-webkit-animation-name: H1BYZ0Gp2G_r1ifAMa2M_Animation;animation-name: H1BYZ0Gp2G_r1ifAMa2M_Animation;-webkit-transform-origin: 50% 50%;transform-origin: 50% 50%;transform-box: fill-box;-webkit-transform: scale(1, 1);transform: scale(1, 1);}#ry8K-0f6hG_H19Y0M6hG{-webkit-animation-name: ry8K-0f6hG_H19Y0M6hG_Animation;animation-name: ry8K-0f6hG_H19Y0M6hG_Animation;-webkit-transform-origin: 50% 50%;transform-origin: 50% 50%;transform-box: fill-box;-webkit-transform: scale(1, 1);transform: scale(1, 1);}#HkOtb0Mp3M_HJF0RMTnG{-webkit-animation-name: HkOtb0Mp3M_HJF0RMTnG_Animation;animation-name: HkOtb0Mp3M_HJF0RMTnG_Animation;-webkit-transform-origin: 50% 50%;transform-origin: 50% 50%;transform-box: fill-box;}#rJKFW0za3f_BJveymT2f{-webkit-animation-name: rJKFW0za3f_BJveymT2f_Animation;animation-name: rJKFW0za3f_BJveymT2f_Animation;-webkit-transform-origin: 50% 50%;transform-origin: 50% 50%;transform-box: fill-box;}</style>
<path id="rkgFW0Ga3G" d="M171.6,15.1c0.2,0,0.4,0,0.6,0c6.5,0.7,13,1.3,19.5,2c13.9,0.9,27.2,4.9,39.1,12.1&#10;&#9;c0.9,0.6,1.9,1.2,3,1.8c0.1-2.5,0-5.1-0.6-7.8c-0.4-1.8,1.2-3,2.7-3c0.6,0,1.1,0.2,1.6,0.5c2.5,1.8,5,3.6,7.5,5.4&#10;&#9;c5.5,3.6,10,8.3,13.2,14c1.1,1.9,2.3,4.4,3.3,7C337.6,65.4,394,133.7,394,215.2c0,7.9-0.5,15.6-1.6,23.2c1.7,0.6,3.5,1.2,5.2,2&#10;&#9;c20.6,9.7,30.3,32.3,21.8,50.4c-5.9,12.5-19,19.6-33.3,19.6c-6,0-12.3-1.3-18.3-3.9c-10.2,16.3-23.1,30.8-38,42.9&#10;&#9;c0.7,2.4,1.1,4.8,1.1,7.3c0,28.3-49.1,51.2-109.7,51.2c-60.6,0-109.7-22.9-109.7-51.2c0-2.5,0.4-4.9,1.1-7.3&#10;&#9;c-15.1-12.2-28.1-26.9-38.3-43.5c-0.1,0-0.1,0.1-0.2,0.1c-6.4,3-13,4.4-19.4,4.4c-14.3,0-27.5-7.1-33.4-19.7&#10;&#9;c-8.6-18.1,1.2-40.7,21.8-50.4c2.2-1.1,4.5-1.9,6.8-2.6c-1-7.4-1.5-15-1.5-22.7c0-81.1,55.8-149,131.2-167.6&#10;&#9;c-2.7-8.3-6.8-16.1-13-23.2C163.5,20.5,167.2,15.1,171.6,15.1 M171.6,5.9L171.6,5.9L171.6,5.9c-5.9,0-11.5,3.7-14,9.1&#10;&#9;c-2.4,5.2-1.5,11.1,2.2,15.3c3,3.4,5.5,7.1,7.5,11.1c-34.7,10.8-65.9,32.1-88.6,60.8c-25.7,32.4-39.3,71.5-39.3,112.9&#10;&#9;c0,5.5,0.3,11,0.8,16.5c-0.3,0.1-0.6,0.3-0.8,0.4c-12,5.7-21.3,15.1-26.3,26.7c-5.2,12-5.1,24.7,0.2,35.9&#10;&#9;c7.3,15.4,23.2,24.9,41.7,24.9c5.3,0,10.7-0.8,15.9-2.4c9,13.3,19.7,25.3,31.9,35.8c-0.1,1.3-0.2,2.5-0.2,3.7&#10;&#9;c0,17.4,13.3,33.2,37.4,44.5c21.9,10.2,50.8,15.8,81.4,15.8c30.6,0,59.5-5.6,81.4-15.8c24.1-11.3,37.4-27.1,37.4-44.5&#10;&#9;c0-1.2-0.1-2.5-0.2-3.7c12.1-10.4,22.7-22.2,31.6-35.4c4.8,1.3,9.6,2,14.6,2c18.4,0,34.4-9.5,41.6-24.9c5.3-11.2,5.3-23.9,0.2-35.9&#10;&#9;c-4.9-11.3-13.9-20.6-25.5-26.3c0.5-5.8,0.8-11.6,0.8-17.3c0-41.7-13.7-80.9-39.7-113.5c-24.3-30.3-57.9-52.3-95.2-62.3&#10;&#9;c-0.7-1.5-1.4-2.8-2-3.8c-3.9-6.9-9.3-12.7-16.1-17.1l-3.6-2.6l-3.8-2.7c-2-1.4-4.4-2.2-6.9-2.2c-3.6,0-7.2,1.7-9.4,4.4&#10;&#9;c-0.2,0.3-0.4,0.5-0.6,0.8c-10.5-4.8-21.7-7.6-33.5-8.4l-8.8-0.9L173.1,6C172.6,6,172.1,5.9,171.6,5.9L171.6,5.9L171.6,5.9z"/>
<path id="SJ-tZAM63f" d="M397.7,240.4c-1.7-0.8-3.5-1.5-5.2-2c1-7.6,1.6-15.3,1.6-23.2c0-81.5-56.5-149.8-132.4-167.9&#10;&#9;c-1-2.6-2.2-5.1-3.3-7c-3.2-5.7-7.7-10.4-13.2-14c-2.5-1.8-5-3.6-7.5-5.4c-1.8-1.3-4.8,0.1-4.3,2.5c0.6,2.7,0.7,5.3,0.6,7.8&#10;&#9;c-1-0.7-2-1.3-3-1.8c-12-7.2-25.2-11.2-39.1-12.1c-6.5-0.7-13-1.3-19.5-2c-4.7-0.5-8.8,5.2-5.4,9.2c6.2,7.1,10.3,14.9,13,23.2&#10;&#9;C104.5,66.1,48.6,134.1,48.6,215.2c0,7.7,0.5,15.2,1.5,22.7c-2.3,0.7-4.6,1.5-6.8,2.6c-20.6,9.7-30.3,32.3-21.8,50.4&#10;&#9;c8.6,18.1,32.2,25,52.8,15.2c0.1,0,0.1-0.1,0.2-0.1c10.3,16.6,23.2,31.3,38.3,43.5c-0.7,2.4-1.1,4.8-1.1,7.3&#10;&#9;c0,28.3,49.1,51.2,109.7,51.2c60.6,0,109.7-22.9,109.7-51.2c0-2.5-0.4-4.9-1.1-7.3c14.9-12.1,27.8-26.6,38-42.9&#10;&#9;c20.3,8.9,43.2,2.1,51.6-15.7C428,272.7,418.3,250.1,397.7,240.4z"/>
<path id="rkftW0zT2G" d="M287.2,122c-24.5-2.6-48,8.6-65.9,28.7c-17.9-20.1-41.4-31.3-65.9-28.7&#10;&#9;c-46.9,5.1-79.6,59.1-72.9,120.8c4.9,45.2,29.6,81.9,60.9,96.3c-4.2,4.7-6.6,9.9-6.6,15.3c0,21.8,37.8,39.4,84.5,39.4&#10;&#9;s84.5-17.6,84.5-39.4c0-5.4-2.3-10.6-6.6-15.3c31.3-14.4,56-51.1,60.9-96.3C366.8,181.2,334.1,127.1,287.2,122z"/>
<path id="Hk7KZ0G62f" d="M249.6,180.4c0,0,0.9-0.6,2.5-1.6c1.6-1,4-2.4,7-3.8c3-1.5,6.5-2.9,10.6-4.1&#10;&#9;c2-0.5,4.1-1.1,6.4-1.3c2.2-0.3,4.5-0.4,6.8-0.4c2.2,0.1,4.6,0.4,6.8,1c2.2,0.5,4.3,1.3,6.2,2.3c1.9,0.9,3.7,2,5.3,3.3&#10;&#9;c1.6,1.2,2.9,2.5,4,3.8c0.5,0.7,1,1.3,1.5,2c0.4,0.7,0.8,1.3,1.1,1.9c0.6,1.2,1,2.4,1.3,3.3c0.3,0.9,0.4,1.7,0.5,2.2&#10;&#9;c0.1,0.5,0.1,0.8,0.1,0.8s-0.1-0.2-0.4-0.7c-0.2-0.4-0.6-1.1-1.1-1.9c-0.5-0.8-1.2-1.7-1.9-2.7c-0.4-0.5-0.9-1-1.4-1.5&#10;&#9;c-0.5-0.5-1-1-1.6-1.5c-1.2-1-2.5-2-4-2.9c-1.5-0.9-3.2-1.7-4.9-2.4c-1.8-0.7-3.7-1.2-5.6-1.6c-2-0.4-3.9-0.6-6-0.7&#10;&#9;c-2-0.1-4.1,0-6.1,0.2c-2,0.2-4,0.5-5.9,0.9c-1.9,0.4-3.8,0.8-5.6,1.3c-1.8,0.5-3.4,0.9-5,1.4c-3.1,0.9-5.7,1.7-7.5,2.2&#10;&#9;C250.7,180.1,249.6,180.4,249.6,180.4z"/>
<path id="HkNKZ0f62G" d="M188.2,180.4c0,0-1.1-0.3-2.9-0.8c-1.8-0.5-4.4-1.3-7.5-2.2c-1.5-0.4-3.2-0.9-5-1.4&#10;&#9;c-1.8-0.5-3.6-0.8-5.6-1.3c-1.9-0.4-3.9-0.6-5.9-0.9c-2-0.2-4.1-0.3-6.1-0.2c-2.1,0.1-4,0.3-6,0.7c-1.9,0.5-3.9,0.9-5.6,1.6&#10;&#9;c-1.8,0.7-3.5,1.5-4.9,2.4c-1.5,0.9-2.8,1.9-4,2.9c-0.6,0.5-1.1,1-1.6,1.5c-0.5,0.5-0.9,1-1.4,1.5c-0.8,1-1.5,1.9-1.9,2.7&#10;&#9;c-0.5,0.8-0.8,1.5-1.1,1.9c-0.2,0.5-0.4,0.7-0.4,0.7s0-0.3,0.1-0.8c0.1-0.5,0.1-1.3,0.5-2.2c0.2-1,0.7-2.1,1.3-3.3&#10;&#9;c0.3-0.6,0.7-1.2,1.1-1.9c0.5-0.6,0.9-1.3,1.5-2c1.1-1.3,2.4-2.7,4-3.8c1.5-1.2,3.3-2.3,5.3-3.3c1.9-0.9,4-1.7,6.2-2.3&#10;&#9;c2.2-0.5,4.6-0.8,6.8-1c2.3,0,4.6,0.1,6.8,0.4c2.2,0.3,4.3,0.8,6.4,1.3c4,1.1,7.6,2.6,10.6,4.1c3,1.4,5.3,2.8,7,3.8&#10;&#9;C187.3,179.7,188.2,180.4,188.2,180.4z"/>
<g id="H1BYZ0Gp2G_r1ifAMa2M" data-animator-group="true" data-animator-type="2"><path id="H1BYZ0Gp2G" d="M191.3,263.7c-1.8,0.8-3.8,1.3-5.9,1.3c-7.6,0-13.7-6.1-13.7-13.7c0-4.6,2.3-8.7,5.8-11.2&#10;&#9;c-3-2-6.3-2.9-9.4-2.3c-9.8,1.8-15.2,16.9-12.1,33.8c3.1,16.8,13.6,29,23.4,27.2c9.8-1.8,15.2-16.9,12.1-33.8&#10;&#9;C191.5,264.5,191.4,264.1,191.3,263.7z"/></g>
<g id="ry8K-0f6hG_H19Y0M6hG" data-animator-group="true" data-animator-type="2"><path id="ry8K-0f6hG" d="M267.6,257.7c0-5.5,3.2-10.2,7.8-12.3c-1.8-2-3.9-3.3-6.3-3.8c-9.2-1.7-19.1,9.7-22,25.5&#10;&#9;c-2.9,15.8,2.2,30,11.4,31.7c9.2,1.7,19.1-9.7,22-25.5c0.1-0.6,0.2-1.3,0.3-1.9C273.5,271,267.6,265,267.6,257.7z"/></g>
<path id="r1wYbAMa3f" d="M192.2,351.4c-1.2,1.9-1.9,4.1-2,6.2c-0.1,2.1,0.2,4.3,1.2,6.1c0.5,0.9,1.1,1.7,1.8,2.4&#10;&#9;c0.7,0.6,1.7,1.3,2.5,1.8c1.8,1.1,3.7,1.9,5.8,2.3c2,0.5,4.1,0.6,6,0.3c1-0.1,2-0.3,2.8-0.7c0.6-0.2,0.8-0.4,1.2-0.6&#10;&#9;c0.4-0.2,0.8-0.5,1.1-0.8c2.9-2.4,4.6-6.3,6-10.4l2.6-8.1l1.8,8.6c0.1,0.5,0.2,1,0.3,1.5c0.2,0.5,0.3,1,0.5,1.4&#10;&#9;c0.4,0.9,0.9,1.8,1.5,2.6c0.6,0.8,1.4,1.6,2.2,2.3c0.8,0.7,1.8,1.3,2.8,1.9c2,1.1,4.1,2,6.3,2.7c1.1,0.3,2.3,0.6,3.4,0.8&#10;&#9;c0.4,0.1,1.2,0.2,1.7,0.2c0.5,0.1,1.1,0.1,1.6,0.1c2.2,0,4.4-0.4,6.3-1.4c1.9-1,3.3-2.7,4.1-4.8c0.4-1,0.7-2.2,0.8-3.3&#10;&#9;c0.1-1.1,0-2.3-0.3-3.4c-0.5-2.3-1.8-4.4-3.9-5.9c2.3,1,4.1,3,5.1,5.5c0.5,1.2,0.8,2.5,0.9,3.9c0.1,1.3,0,2.7-0.4,4&#10;&#9;c-0.7,2.6-2.4,5.1-4.7,6.7c-2.4,1.6-5.1,2.3-7.8,2.5c-0.7,0-1.4,0.1-2.1,0c-0.8,0-1.2-0.1-2-0.2c-1.3-0.2-2.6-0.4-3.9-0.7&#10;&#9;c-2.5-0.6-5-1.5-7.4-2.8c-1.2-0.6-2.3-1.4-3.4-2.2c-1.1-0.9-2.1-1.8-3-2.9c-0.9-1.1-1.7-2.4-2.2-3.7c-0.6-1.3-0.9-2.8-1.1-4.2&#10;&#9;l4.4,0.5c-0.8,2.2-1.6,4.4-2.8,6.6c-1.2,2.1-2.7,4.2-4.9,5.8c-0.5,0.4-1.1,0.7-1.7,1.1c-0.6,0.3-1.4,0.6-1.9,0.8&#10;&#9;c-1.3,0.4-2.5,0.6-3.8,0.7c-2.5,0.2-5-0.2-7.3-0.9c-2.3-0.7-4.5-1.8-6.5-3.3c-1-0.8-1.8-1.5-2.7-2.5c-0.8-1-1.5-2.1-1.9-3.2&#10;&#9;C187.7,359.9,189.1,354.7,192.2,351.4z"/>
<g id="HkOtb0Mp3M_HJF0RMTnG" data-animator-group="true" data-animator-type="0"><ellipse id="HkOtb0Mp3M" cx="225.6" cy="335.5" rx="2.9" ry="5.7"/></g>
<g id="rJKFW0za3f_BJveymT2f" data-animator-group="true" data-animator-type="0"><ellipse id="rJKFW0za3f" cx="213.2" cy="335.5" rx="2.9" ry="5.7"/></g>
<path id="SycYbRM6nf" d="M392.1,245.3c-0.2-0.1-0.4-0.2-0.6-0.3c-3.4,19.7-10.3,38.3-19.8,55.2&#10;&#9;c12.6,3.2,26.4-3.6,32.6-16.6C411.2,268.9,405.8,251.8,392.1,245.3z"/>
<path id="rJot-RGT3M" d="M51.1,244.4c-0.7,0.3-1.5,0.6-2.2,0.9c-13.6,6.4-19.1,23.6-12.1,38.3&#10;&#9;c6.4,13.6,21.1,20.3,34,16.2C61.3,282.9,54.5,264.2,51.1,244.4z"/>
<path id="B12FbRGT2M" d="M282.1,191.2c-33.3,0-60.6,25.8-62.9,58.5c-2.4-32.7-29.7-58.5-62.9-58.5&#10;&#9;c-34.8,0-63.1,28.3-63.1,63.1c0,34.8,28.3,63.1,63.1,63.1c29.9,0,55.1-21,61.5-49c0.9-0.1,1.9-0.1,2.9,0c6.4,28,31.6,49,61.5,49&#10;&#9;c34.8,0,63.1-28.3,63.1-63.1C345.3,219.5,316.9,191.2,282.1,191.2z M156.3,310.5c-31,0-56.2-25.2-56.2-56.2&#10;&#9;c0-31,25.2-56.2,56.2-56.2s56.2,25.2,56.2,56.2c0,3-0.2,5.9-0.7,8.8c-1.2,0.5-2.4,1.1-3.5,1.7l-3.9,2c-1.7,0.9-2.4,2.9-1.5,4.6&#10;&#9;c0.9,1.7,2.9,2.4,4.6,1.5l2.1-1.1C202.3,294.3,181.2,310.5,156.3,310.5z M219,261.5c0.1-0.8,0.2-1.7,0.2-2.5&#10;&#9;c0.1,0.8,0.1,1.7,0.2,2.5C219.3,261.5,219.1,261.5,219,261.5z M282.1,310.5c-24.8,0-45.9-16.2-53.4-38.5c0.3,0.2,0.6,0.4,1,0.7&#10;&#9;c0.6,0.5,1.3,0.7,2,0.7c1.1,0,2.1-0.5,2.8-1.4c1.1-1.5,0.8-3.7-0.7-4.8c-2.5-1.8-4.9-3.2-7.3-4.2c-0.4-2.8-0.7-5.7-0.7-8.7&#10;&#9;c0-31,25.2-56.2,56.2-56.2c31,0,56.2,25.2,56.2,56.2C338.4,285.3,313.2,310.5,282.1,310.5z"/>
</svg>